<svg width="293" height="265" viewBox="0 0 293 265" fill="none" xmlns="http://www.w3.org/2000/svg">
<path d="M26.0612 10.7645C26.0714 10.7768 26.0804 10.7901 26.0882 10.8043C26.1275 10.8769 26.1282 10.9642 26.0898 11.0374L23.6789 15.6368C24.0853 15.9155 24.27 16.1946 24.2424 16.4859C24.2148 16.7772 23.981 17.0165 23.5295 17.2141L25.0337 22.1844C25.0576 22.2635 25.0405 22.3492 24.9883 22.4131C24.936 22.4769 24.8554 22.5106 24.7732 22.5028L22.9444 22.3296C22.8562 22.3212 22.7793 22.2664 22.7424 22.1858L20.7338 17.7867C18.9071 17.973 16.526 18.0203 13.9716 17.9211L17.0182 28.6634C17.0406 28.7421 17.0226 28.8267 16.9702 28.8896C16.918 28.9524 16.8379 28.9854 16.7564 28.9777L14.365 28.7511C14.2758 28.7427 14.198 28.6867 14.1618 28.6048L12.9132 25.7863L11.0408 25.6089C10.7495 25.5813 10.4841 25.4526 10.2934 25.2467C10.0954 25.0329 10.0012 24.7625 10.0274 24.4853C10.0537 24.2078 10.1972 23.96 10.4315 23.7873C10.6576 23.6206 10.9424 23.544 11.2337 23.5716L11.9625 23.6406L11.405 22.3817L9.63251 22.2138C9.34119 22.1862 9.07583 22.0574 8.88511 21.8515C8.68734 21.6378 8.59288 21.3673 8.61914 21.0901C8.64543 20.8127 8.78887 20.5649 9.02326 20.3921C9.24928 20.2254 9.53409 20.1488 9.82541 20.1764L10.4544 20.236L9.28145 17.5882C9.28031 17.5858 9.27941 17.5835 9.2785 17.5811L9.27658 17.5763C6.51986 17.2704 4.25198 16.8079 2.71168 16.237C1.96063 15.9587 1.38584 15.6562 1.00309 15.3381C0.581386 14.9876 0.386049 14.6146 0.422516 14.2297C0.458982 13.8448 0.72101 13.515 1.20138 13.2498C1.6374 13.0092 2.2591 12.8201 3.04953 12.6876C4.66961 12.4163 6.98332 12.3879 9.74755 12.6051L9.75021 12.6008C9.75154 12.5987 9.7531 12.5966 9.75443 12.5944L11.4036 10.2141L10.7746 10.1545C10.4833 10.1269 10.218 9.99814 10.0273 9.79199C9.8294 9.57815 9.73516 9.30771 9.76132 9.03038C9.81453 8.46879 10.3556 8.05893 10.9676 8.11691L12.7401 8.28483L13.5242 7.15311L12.7954 7.08406C12.504 7.05646 12.2387 6.92774 12.048 6.72158C11.8501 6.50797 11.7559 6.23731 11.782 5.95997C11.8352 5.39838 12.3763 4.98852 12.9883 5.0465L14.8607 5.22389L16.6163 2.68991C16.6673 2.61635 16.7542 2.57589 16.8433 2.58434L19.2352 2.81094C19.3167 2.81866 19.3889 2.86606 19.4287 2.9376C19.4682 3.00913 19.47 3.0956 19.4333 3.16883L14.4235 13.1477C16.9514 13.5301 19.2814 14.0238 21.0403 14.5497L23.8392 10.6063C23.8904 10.534 23.9764 10.4947 24.0646 10.503L25.8934 10.6763C25.9598 10.682 26.0198 10.7144 26.0612 10.7645Z" fill="white"/>
<path d="M30.6318 15.9818C60.3758 15.9818 127.499 48.6557 145.612 85.2364C168.253 130.962 124.303 125.635 124.747 110.985C125.191 96.3348 162.038 91.0076 191.338 129.63C220.638 168.253 217.086 254.377 280.126 264.144C283.677 264.292 291.224 263.878 293 261.036" stroke="white" stroke-linejoin="round" stroke-dasharray="6 6"/>
</svg>
